<?xml version="1.0" standalone="no"?><!DOCTYPE svg PUBLIC "-//W3C//DTD SVG 1.1//EN" "http://www.w3.org/Graphics/SVG/1.1/DTD/svg11.dtd"><svg class="icon" width="200px" height="200.00px" viewBox="0 0 1024 1024" version="1.1" xmlns="http://www.w3.org/2000/svg"><path d="M627.818 183.43l-18.939-16.565-18.939 16.565c-5.002 4.375-68.856 60.856-128.623 140.038-40.753-50.483-79.946-85.121-83.348-88.095l-18.939-16.565-18.939 16.565C332.819 241.732 162 392.75 162 534.039c0 120.874 88.385 219.218 197.03 219.218 16.952 0 33.409-2.397 49.116-6.897 46.311 67.289 119.042 110.775 200.733 110.775 139.57 0 253.121-126.82 253.121-282.699 0-184.074-224.621-382.643-234.182-391.006zM359.03 695.723c-76.918 0-139.495-72.526-139.495-161.684 0-90.862 97.632-196.435 139.622-237.638 19.546 19.084 44.39 45.913 67.683 76.429-39.748 62.12-71.077 132.87-71.077 201.606 0 42.631 8.543 83.061 23.738 119.346-6.701 1.15-13.5 1.941-20.471 1.941z m249.848 103.878c-59.024 0-111.984-30.301-147.875-78.051-11.374-15.133-21.06-31.986-28.644-50.225-12.21-29.364-19.063-62.221-19.063-96.888 0-49.067 20.51-101.015 48.832-149.384 10.72-18.312 22.562-36.09 34.838-53.021 40.997-56.544 86.823-103.471 111.913-127.649 52.449 50.548 195.587 200.387 195.587 330.054 0 124.151-87.739 225.164-195.588 225.164z" fill="#707070" /></svg>