<?xml version="1.0" standalone="no"?><!DOCTYPE svg PUBLIC "-//W3C//DTD SVG 1.1//EN" "http://www.w3.org/Graphics/SVG/1.1/DTD/svg11.dtd"><svg class="icon" width="200px" height="200.00px" viewBox="0 0 1024 1024" version="1.1" xmlns="http://www.w3.org/2000/svg"><path d="M585.142857 752.786286c49.590857 38.083048 92.988952 77.141333 170.812953 77.141333 69.729524 0 126.585905-31.061333 170.52038-93.184V97.52381H97.52381v479.475809c88.259048 69.193143 186.319238 103.862857 294.229333 104.009143a288.670476 288.670476 0 0 1 95.865905 15.262476V536.380952a48.761905 48.761905 0 0 1 97.523809 0v216.405334zM48.761905 0h926.47619a48.761905 48.761905 0 0 1 48.761905 48.761905v926.47619a48.761905 48.761905 0 0 1-48.761905 48.761905H48.761905a48.761905 48.761905 0 0 1-48.761905-48.761905V48.761905a48.761905 48.761905 0 0 1 48.761905-48.761905z m720.018285 357.229714c11.02019-4.973714 3.754667-21.211429-6.339047-17.310476-76.848762 29.354667-125.513143 96.060952-156.038095 122.392381-4.827429 4.193524-11.751619 2.438095-14.336-3.413333-13.165714-29.208381-35.011048-103.521524 52.370285-151.600762 74.118095-40.667429 158.329905-45.543619 208.652191-70.509714 12.288-6.095238 25.84381 4.681143 24.380952 19.21219-6.144 62.951619-27.648 112.347429-57.10019 163.157333-59.343238 102.4-121.027048 118.00381-183.637334 90.697143-1.80419-0.828952-3.705905-1.657905-5.753904-2.779428-5.753905-3.218286-6.582857-11.800381-1.609143-16.432762-0.048762 0 40.082286-61.927619 139.410285-133.412572z m-494.933333-20.187428c115.907048 83.334095 162.767238 155.648 162.669714 155.648 5.802667 5.36381 4.87619 15.408762-1.852952 19.114666-2.438095 1.316571-4.583619 2.340571-6.729143 3.31581-73.045333 31.841524-144.969143 13.55581-214.211047-105.813333-34.377143-59.343238-59.489524-116.931048-66.608762-190.366477-1.706667-16.969143 14.09219-29.549714 28.42819-22.430476 58.660571 29.110857 156.91581 34.816 243.419429 82.261334 101.961143 56.07619 76.409905 142.823619 61.098666 176.859428-3.023238 6.826667-11.117714 8.874667-16.725333 4.047238-35.59619-30.817524-92.40381-108.641524-182.076952-142.872381-11.702857-4.534857-20.187429 14.433524-7.363048 20.236191z" fill="#924813" /></svg>