<?xml version="1.0" standalone="no"?><!DOCTYPE svg PUBLIC "-//W3C//DTD SVG 1.1//EN" "http://www.w3.org/Graphics/SVG/1.1/DTD/svg11.dtd"><svg class="icon" width="200px" height="200.00px" viewBox="0 0 1024 1024" version="1.1" xmlns="http://www.w3.org/2000/svg"><path d="M520 75c72.899 0 132.133 58.543 133.31 131.209l0.018 2.206v399.237C700.759 646.978 729 705.514 729 768.714c0 84.846-50.493 157.892-123.051 190.69C579.509 971.959 549.966 979 518.85 979c-57.133 0-108.962-23.737-146.008-61.784C334.65 879.324 311 826.783 311 768.714c0-63.27 28.313-121.806 75.67-161.065l0.002-399.234C386.672 134.732 446.365 75 520 75z m0 59.807c-40.22 0-72.9 32.3-73.55 72.39l-0.01 1.218v403.457c4.008 12.048-0.02 25.747-10.721 33.573l-0.619 0.441c-40.008 27.753-64.332 73.214-64.332 122.828 0 82.472 66.813 149.33 149.232 149.33s149.232-66.858 149.232-149.33c0-47.591-22.367-91.397-59.645-119.44l-1.134-0.846a29.773 29.773 0 0 1-10.972-15.751 29.763 29.763 0 0 1-3.913-14.111l-0.008-0.706V208.415c0-40.653-32.934-73.608-73.56-73.608z m-2.299 236.926c4.41 0 8.66 0.69 12.647 1.968 16.826 4.965 29.19 20.52 29.19 38.81l0.002 240.184c47.972 17.182 82.294 63.07 82.294 116.982 0 6.94-0.568 13.747-1.662 20.376-6.746 60.536-58.728 108.02-121.321 108.02-47.223 0-88.407-27.027-108.683-66.296-10.557-18.27-16.6-39.479-16.6-62.1 0-54.083 34.542-100.093 82.754-117.145l0.002-239.422c0-22.852 18.525-41.377 41.377-41.377z" fill="#ff541c" /></svg>