<?xml version="1.0" standalone="no"?><!DOCTYPE svg PUBLIC "-//W3C//DTD SVG 1.1//EN" "http://www.w3.org/Graphics/SVG/1.1/DTD/svg11.dtd"><svg t="1631027440927" class="icon" viewBox="0 0 1024 1024" version="1.1" xmlns="http://www.w3.org/2000/svg" p-id="1098" xmlns:xlink="http://www.w3.org/1999/xlink" width="128" height="128"><defs><style type="text/css"></style></defs><path d="M821.76 455.76c-16.14 0-32.28-6.14-44.56-18.42l-192.1-192.1c-24.56-24.56-24.58-64.54 0-89.12s64.56-24.56 89.14 0c6.9 6.9 6.9 18.1 0 25-6.9 6.9-18.1 6.9-25 0-10.8-10.8-28.36-10.78-39.16 0-10.8 10.8-10.8 28.36 0 39.14l192.1 192.1c10.8 10.8 28.36 10.8 39.14 0 5.2-5.2 8.06-12.14 8.06-19.58 0-7.42-2.86-14.38-8.06-19.56l-134.38-134.4c-6.9-6.9-6.9-18.1 0-24.98a17.66 17.66 0 0 1 24.98 0l134.38 134.38c11.88 11.86 18.4 27.7 18.4 44.56 0 16.88-6.54 32.7-18.4 44.56-12.28 12.28-28.42 18.42-44.54 18.42z" p-id="1099" fill="#50d154"></path><path d="M275.46 885.22c-35.42 0-70.84-13.48-97.8-40.44-26.04-26.04-40.36-60.76-40.36-97.8s14.34-71.78 40.36-97.8L595.84 231a17.66 17.66 0 0 1 24.98 0c6.9 6.9 6.9 18.1 0 24.98L202.64 674.16c-19.36 19.34-30.02 45.22-30.02 72.8s10.66 53.46 30.02 72.82c40.14 40.12 105.48 40.14 145.64 0l418.18-418.2a17.66 17.66 0 0 1 24.98 0c6.9 6.9 6.9 18.1 0 24.98l-418.18 418.2c-26.98 26.98-62.38 40.46-97.8 40.46z" p-id="1100" fill="#50d154"></path><path d="M257.7 792.06c-19.16 0-38.02-9.14-49.64-26.1-9.06-13.22-12.42-29.2-9.48-44.96 2.96-15.76 11.86-29.44 25.1-38.5 35.42-24.26 107.18-23.76 115.26-23.62 5.64 0.1 10.92 2.88 14.16 7.52a17.73 17.73 0 0 1 2.26 15.88c-2.54 7.44-25.9 73.36-63.82 99.32a59.78 59.78 0 0 1-33.84 10.46z m23.84-25.04h0.12-0.12z m30.44-71.92c-23.38 1.7-53.18 6.18-68.32 16.54a24.572 24.572 0 0 0-10.32 15.84c-1.22 6.48 0.16 13.06 3.9 18.5 7.7 11.24 23.12 14.12 34.36 6.44 16.16-11.08 30.78-36.62 40.38-57.32z" p-id="1101" fill="#50d154"></path><path d="M338.66 694.22c-5.64 0-11.18-2.7-14.6-7.68-5.52-8.06-3.46-19.06 4.6-24.56l320.46-219.44c8.08-5.5 19.06-3.44 24.56 4.6 5.52 8.06 3.46 19.06-4.6 24.56L348.62 691.12a17.47 17.47 0 0 1-9.96 3.1z" p-id="1102" fill="#50d154"></path></svg>