<?xml version="1.0" standalone="no"?><!DOCTYPE svg PUBLIC "-//W3C//DTD SVG 1.1//EN" "http://www.w3.org/Graphics/SVG/1.1/DTD/svg11.dtd"><svg t="1631027384477" class="icon" viewBox="0 0 1024 1024" version="1.1" xmlns="http://www.w3.org/2000/svg" p-id="889" xmlns:xlink="http://www.w3.org/1999/xlink" width="128" height="128"><defs><style type="text/css"></style></defs><path d="M637.44 963.6H385.2c-58.34 0-105.8-47.46-105.8-105.8V510.5c0-58.34 47.46-105.8 105.8-105.8h252.24c58.34 0 105.8 47.46 105.8 105.8V857.8c-0.02 58.34-47.48 105.8-105.8 105.8zM385.2 440.04c-38.84 0-70.46 31.6-70.46 70.46V857.8c0 38.84 31.6 70.46 70.46 70.46h252.24c38.84 0 70.46-31.6 70.46-70.46V510.5c0-38.84-31.6-70.46-70.46-70.46H385.2z" p-id="890" fill="#50d154"></path><path d="M579.54 765.56H297.06c-9.76 0-17.68-7.9-17.68-17.68v-144.62c0-9.76 7.9-17.68 17.68-17.68h152.34c9.76 0 17.68 7.9 17.68 17.68s-7.9 17.68-17.68 17.68h-134.66v109.28h247.14v-109.28h-41.12c-9.76 0-17.68-7.9-17.68-17.68s7.9-17.68 17.68-17.68h58.78c9.76 0 17.68 7.9 17.68 17.68v144.62c0 9.78-7.92 17.68-17.68 17.68zM725.56 558.08h-58.58c-9.76 0-17.68-7.9-17.68-17.68s7.9-17.68 17.68-17.68h58.58c9.76 0 17.68 7.9 17.68 17.68s-7.92 17.68-17.68 17.68zM725.56 828.42h-58.58c-9.76 0-17.68-7.9-17.68-17.68s7.9-17.68 17.68-17.68h58.58c9.76 0 17.68 7.9 17.68 17.68s-7.92 17.68-17.68 17.68zM725.56 693.26h-58.58c-9.76 0-17.68-7.9-17.68-17.68s7.9-17.68 17.68-17.68h58.58c9.76 0 17.68 7.9 17.68 17.68s-7.92 17.68-17.68 17.68zM725.56 625.68h-37.46c-9.76 0-17.68-7.9-17.68-17.68s7.9-17.68 17.68-17.68h37.46c9.76 0 17.68 7.9 17.68 17.68s-7.92 17.68-17.68 17.68zM725.56 760.84h-37.46c-9.76 0-17.68-7.9-17.68-17.68s7.9-17.68 17.68-17.68h37.46c9.76 0 17.68 7.9 17.68 17.68s-7.92 17.68-17.68 17.68zM585.88 440.04h-159.44c-32 0-58.02-26.04-58.02-58.04v-53.24c0-32 26.02-58.04 58.02-58.04h159.44c32 0 58.02 26.04 58.02 58.04V382c0 32.02-26.02 58.04-58.02 58.04z m-159.44-133.96c-12.52 0-22.68 10.18-22.68 22.7v53.24c0 12.52 10.18 22.7 22.68 22.7h159.44c12.52 0 22.68-10.18 22.68-22.7v-53.24c0-12.52-10.18-22.7-22.68-22.7h-159.44z" p-id="891" fill="#50d154"></path><path d="M560.74 306.08c-9.76 0-17.68-7.9-17.68-17.68V132.24c0-20.36-16.56-36.9-36.92-36.9s-36.9 16.56-36.9 36.9v156.16c0 9.76-7.9 17.68-17.68 17.68s-17.68-7.9-17.68-17.68V132.24c0-39.84 32.4-72.24 72.24-72.24s72.26 32.4 72.26 72.24v156.16a17.626 17.626 0 0 1-17.64 17.68z" p-id="892" fill="#50d154"></path></svg>